<svg xmlns="http://www.w3.org/2000/svg" width="64" height="64" enable-background="new 0 0 64 64" viewBox="0 0 64 64" id="decision"><path fill="#E6E9ED" d="M57.475,6.005v3v26.99h-22V6.005c0-1.66,1.34-3,3-3h22C58.814,3.005,57.475,4.345,57.475,6.005z"></path><path fill="#545C66" d="M46.468,19.006c-0.553,0-1-0.447-1-1v-9c0-0.553,0.447-1,1-1s1,0.447,1,1v9
				C47.468,18.559,47.021,19.006,46.468,19.006z"></path><path fill="#CCD1D9" d="M63.475,6.005v3h-6v-3c0-1.66,1.34-3,3-3S63.475,4.345,63.475,6.005z"></path><path fill="#656D78" d="M34.466,55.994c0.55,0,1,0.45,1,1v2.001c0,0.55-0.45,1-1,1H4.454c-0.55,0-1-0.45-1-1v-2.001
			c0-0.55,0.45-1,1-1H34.466z"></path><path fill="#965353" d="M29.465,49.995c0.55,0,1,0.45,1,1v2c0,0.55-0.45,1-1,1h-20c-0.55,0-1-0.45-1-1v-2c0-0.55,0.45-1,1-1l0,0
			c0.55,0,1.45,0,2,0h16C28.015,49.995,28.915,49.995,29.465,49.995L29.465,49.995z"></path><path fill="#844747" d="M60.475,35.995c1.66,0,3,1.35,3,3c0,1.66-1.34,3-3,3h-28.01v-6h3.01h22H60.475z"></path><path fill="#965353" d="M32.465,41.995c0,0.55-0.45,1-1,1h-4.002c-0.55,0-1-0.45-1-1v-6c0-0.55,0.45-1,1-1h4.002
			c0.55,0,1,0.45,1,1V41.995z"></path><path fill="#844747" d="M28.465,42.995v7h-18v-22h18v7V42.995z M24.465,38.995c0-2.76-2.24-5-5-5c-2.771,0-5,2.24-5,5
			c0,2.77,2.229,5,5,5C22.225,43.995,24.465,41.765,24.465,38.995z"></path><path fill="#844747" d="M19.465,36.995c1.1,0,2,0.9,2,2c0,1.11-0.9,2-2,2c-1.11,0-2-0.89-2-2
			C17.465,37.896,18.354,36.995,19.465,36.995z"></path><path fill="#965353" d="M14.465 38.995c0-2.76 2.229-5 5-5 2.76 0 5 2.24 5 5 0 2.77-2.24 5-5 5C16.694 43.995 14.465 41.765 14.465 38.995zM19.465 36.995c-1.11 0-2 .9-2 2 0 1.11.89 2 2 2 1.1 0 2-.89 2-2C21.465 37.896 20.564 36.995 19.465 36.995zM29.465 23.995c.55 0 1 .45 1 1v2c0 .55-.45 1-1 1l0 0c-.55 0-1.45 0-2 0h-16c-.55 0-1.45 0-2 0l0 0c-.55 0-1-.45-1-1v-2c0-.55.45-1 1-1H29.465z"></path><path fill="#656D78" d="M50.468 19.006h-8c-.553 0-1-.447-1-1s.447-1 1-1h8c.553 0 1 .447 1 1S51.021 19.006 50.468 19.006zM50.468 11.006h-8c-.553 0-1-.447-1-1s.447-1 1-1h8c.553 0 1 .447 1 1S51.021 11.006 50.468 11.006zM51.468 14.006h-2c-.553 0-1-.447-1-1s.447-1 1-1h2c.553 0 1 .447 1 1S52.021 14.006 51.468 14.006zM43.468 14.006h-2c-.553 0-1-.447-1-1s.447-1 1-1h2c.553 0 1 .447 1 1S44.021 14.006 43.468 14.006z"></path><path fill="#965353" d="M36.459,60.995H2.455c-0.553,0-1-0.447-1-1s0.447-1,1-1h34.004c0.553,0,1,0.447,1,1
				S37.012,60.995,36.459,60.995z"></path><path fill="#E6E9ED" d="M33.471 52.993c-.256 0-.512-.098-.707-.293-.391-.391-.391-1.023 0-1.414l2.896-2.896c.391-.391 1.023-.391 1.414 0s.391 1.023 0 1.414L34.178 52.7C33.982 52.896 33.727 52.993 33.471 52.993zM5.47 52.993c-.256 0-.512-.098-.707-.293l-2.943-2.943c-.391-.391-.391-1.023 0-1.414s1.023-.391 1.414 0l2.943 2.943c.391.391.391 1.023 0 1.414C5.981 52.896 5.726 52.993 5.47 52.993zM37.47 54.999h-2c-.553 0-1-.447-1-1s.447-1 1-1h2c.553 0 1 .447 1 1S38.022 54.999 37.47 54.999zM3.469 54.999H1.525c-.553 0-1-.447-1-1s.447-1 1-1h1.943c.553 0 1 .447 1 1S4.021 54.999 3.469 54.999z"></path><path fill="#CCD1D9" d="M52.468 25.004H40.47c-.553 0-1-.447-1-1s.447-1 1-1h11.998c.553 0 1 .447 1 1S53.021 25.004 52.468 25.004zM52.468 27.998H40.47c-.553 0-1-.447-1-1s.447-1 1-1h11.998c.553 0 1 .447 1 1S53.021 27.998 52.468 27.998zM49.465 30.992h-5.992c-.553 0-1-.447-1-1s.447-1 1-1h5.992c.553 0 1 .447 1 1S50.018 30.992 49.465 30.992z"></path></svg>